<mxfile host="app.diagrams.net" modified="2023-08-23T06:19:59.075Z" agent="Mozilla/5.0 (X11; Ubuntu; Linux x86_64; rv:105.0) Gecko/20100101 Firefox/105.0" etag="aY3BURAo_3ta7NSqlPTj" version="21.6.8" type="device">
  <diagram name="Page-1" id="aGrNsAUD6rLRG3-fpc4p">
    <mxGraphModel dx="1367" dy="795" grid="1" gridSize="10" guides="1" tooltips="1" connect="1" arrows="1" fold="1" page="1" pageScale="1" pageWidth="850" pageHeight="1100" math="0" shadow="0">
      <root>
        <mxCell id="0" />
        <mxCell id="1" parent="0" />
        <mxCell id="mtRzOFIpQPW2Ku6uo6eA-6" value="" style="rounded=0;whiteSpace=wrap;html=1;fillColor=none;strokeWidth=2;" parent="1" vertex="1">
          <mxGeometry x="7" y="140" width="793" height="570" as="geometry" />
        </mxCell>
        <mxCell id="Dw3qF6tHwgRVVZFkppPR-142" value="" style="rounded=0;whiteSpace=wrap;html=1;strokeWidth=3;fillColor=#ffe6cc;strokeColor=default;" parent="1" vertex="1">
          <mxGeometry x="310" y="390" width="380" height="60" as="geometry" />
        </mxCell>
        <mxCell id="Dw3qF6tHwgRVVZFkppPR-162" value="&lt;font style=&quot;font-size: 18px;&quot;&gt;Free memory chunk&lt;/font&gt;" style="text;html=1;strokeColor=none;fillColor=none;align=center;verticalAlign=middle;whiteSpace=wrap;rounded=0;" parent="1" vertex="1">
          <mxGeometry x="400" y="390" width="178" height="30" as="geometry" />
        </mxCell>
        <mxCell id="Dw3qF6tHwgRVVZFkppPR-173" value="&lt;font style=&quot;font-size: 18px;&quot;&gt;Size=64 bytes&lt;br&gt;&lt;/font&gt;" style="text;html=1;strokeColor=none;fillColor=none;align=center;verticalAlign=middle;whiteSpace=wrap;rounded=0;" parent="1" vertex="1">
          <mxGeometry x="400" y="420" width="178" height="30" as="geometry" />
        </mxCell>
        <mxCell id="Dw3qF6tHwgRVVZFkppPR-174" value="&lt;font style=&quot;font-size: 24px;&quot;&gt;memalloc(10 bytes)&lt;br&gt;&lt;/font&gt;" style="text;html=1;strokeColor=none;fillColor=none;align=center;verticalAlign=middle;whiteSpace=wrap;rounded=0;" parent="1" vertex="1">
          <mxGeometry x="200" y="180" width="244" height="30" as="geometry" />
        </mxCell>
        <mxCell id="Dw3qF6tHwgRVVZFkppPR-201" value="" style="endArrow=classic;html=1;rounded=0;strokeWidth=3;entryX=0.048;entryY=-0.074;entryDx=0;entryDy=0;entryPerimeter=0;" parent="1" target="Dw3qF6tHwgRVVZFkppPR-142" edge="1">
          <mxGeometry width="50" height="50" relative="1" as="geometry">
            <mxPoint x="328" y="220" as="sourcePoint" />
            <mxPoint x="470" y="390" as="targetPoint" />
            <Array as="points" />
          </mxGeometry>
        </mxCell>
        <mxCell id="Dw3qF6tHwgRVVZFkppPR-203" value="&lt;div align=&quot;left&quot;&gt;&lt;font style=&quot;font-size: 18px;&quot;&gt;Mem. chunk size = 64 bytes&lt;/font&gt;&lt;br&gt;&lt;/div&gt;&lt;div align=&quot;left&quot;&gt;&lt;font style=&quot;font-size: 18px;&quot;&gt;Mem. reqd. to store metadata&lt;/font&gt;&lt;font style=&quot;font-size: 18px;&quot;&gt; = 8 bytes&lt;/font&gt;&lt;font style=&quot;font-size: 18px;&quot;&gt; &amp;nbsp;&amp;nbsp;&amp;nbsp;&amp;nbsp;&amp;nbsp; &lt;/font&gt;&lt;/div&gt;&lt;div align=&quot;left&quot;&gt;&lt;font style=&quot;font-size: 18px;&quot;&gt;Remaining bytes = 64 - 8=56 bytes&lt;/font&gt;&lt;/div&gt;&lt;div align=&quot;left&quot;&gt;&lt;font style=&quot;font-size: 18px;&quot;&gt;Requested bytes = 10 bytes&lt;/font&gt;&lt;/div&gt;&lt;div align=&quot;left&quot;&gt;&lt;font style=&quot;font-size: 18px;&quot;&gt;Enough memory!&lt;/font&gt;&lt;/div&gt;" style="text;html=1;strokeColor=none;fillColor=none;align=left;verticalAlign=middle;whiteSpace=wrap;rounded=0;" parent="1" vertex="1">
          <mxGeometry x="348" y="290" width="352" height="30" as="geometry" />
        </mxCell>
        <mxCell id="Dw3qF6tHwgRVVZFkppPR-285" value="&lt;font style=&quot;font-size: 36px;&quot;&gt;Before:&lt;/font&gt;" style="text;html=1;strokeColor=none;fillColor=none;align=center;verticalAlign=middle;whiteSpace=wrap;rounded=0;" parent="1" vertex="1">
          <mxGeometry x="42" y="150" width="60" height="30" as="geometry" />
        </mxCell>
        <mxCell id="Dw3qF6tHwgRVVZFkppPR-287" value="&lt;font style=&quot;font-size: 36px;&quot;&gt;After:&lt;/font&gt;" style="text;html=1;strokeColor=none;fillColor=none;align=center;verticalAlign=middle;whiteSpace=wrap;rounded=0;" parent="1" vertex="1">
          <mxGeometry x="30" y="490" width="60" height="30" as="geometry" />
        </mxCell>
        <mxCell id="Dw3qF6tHwgRVVZFkppPR-138" value="" style="rounded=0;whiteSpace=wrap;html=1;strokeWidth=3;fillColor=#e1d5e7;" parent="1" vertex="1">
          <mxGeometry x="130" y="390" width="180" height="60" as="geometry" />
        </mxCell>
        <mxCell id="Dw3qF6tHwgRVVZFkppPR-172" value="&lt;font style=&quot;font-size: 18px;&quot;&gt;Size=32 bytes&lt;br&gt;&lt;/font&gt;" style="text;html=1;strokeColor=none;fillColor=none;align=center;verticalAlign=middle;whiteSpace=wrap;rounded=0;" parent="1" vertex="1">
          <mxGeometry x="132" y="420" width="178" height="30" as="geometry" />
        </mxCell>
        <mxCell id="Dw3qF6tHwgRVVZFkppPR-163" value="&lt;font style=&quot;font-size: 18px;&quot;&gt;Allocated mem chunk&lt;/font&gt;" style="text;html=1;strokeColor=none;fillColor=none;align=center;verticalAlign=middle;whiteSpace=wrap;rounded=0;" parent="1" vertex="1">
          <mxGeometry x="113.5" y="394" width="209.5" height="26" as="geometry" />
        </mxCell>
        <mxCell id="Dw3qF6tHwgRVVZFkppPR-318" value="" style="rounded=0;whiteSpace=wrap;html=1;strokeWidth=3;fillColor=#e1d5e7;" parent="1" vertex="1">
          <mxGeometry x="127" y="602" width="180" height="60" as="geometry" />
        </mxCell>
        <mxCell id="Dw3qF6tHwgRVVZFkppPR-319" value="&lt;font style=&quot;font-size: 18px;&quot;&gt;Size=32 bytes&lt;br&gt;&lt;/font&gt;" style="text;html=1;strokeColor=none;fillColor=none;align=center;verticalAlign=middle;whiteSpace=wrap;rounded=0;" parent="1" vertex="1">
          <mxGeometry x="149" y="632" width="124" height="30" as="geometry" />
        </mxCell>
        <mxCell id="Dw3qF6tHwgRVVZFkppPR-320" value="&lt;font style=&quot;font-size: 18px;&quot;&gt;Allocated mem chunk&lt;/font&gt;" style="text;html=1;strokeColor=none;fillColor=none;align=center;verticalAlign=middle;whiteSpace=wrap;rounded=0;" parent="1" vertex="1">
          <mxGeometry x="110.5" y="606" width="209.5" height="26" as="geometry" />
        </mxCell>
        <mxCell id="Dw3qF6tHwgRVVZFkppPR-322" value="" style="rounded=0;whiteSpace=wrap;html=1;strokeWidth=3;fillColor=#e1d5e7;" parent="1" vertex="1">
          <mxGeometry x="308" y="602" width="185" height="60" as="geometry" />
        </mxCell>
        <mxCell id="Dw3qF6tHwgRVVZFkppPR-323" value="" style="rounded=0;whiteSpace=wrap;html=1;strokeWidth=3;fillColor=#ffe6cc;strokeColor=default;" parent="1" vertex="1">
          <mxGeometry x="493" y="602" width="194" height="60" as="geometry" />
        </mxCell>
        <mxCell id="Dw3qF6tHwgRVVZFkppPR-324" value="&lt;font style=&quot;font-size: 18px;&quot;&gt;Size=24 bytes&lt;br&gt;&lt;/font&gt;" style="text;html=1;strokeColor=none;fillColor=none;align=center;verticalAlign=middle;whiteSpace=wrap;rounded=0;" parent="1" vertex="1">
          <mxGeometry x="334.25" y="630" width="124" height="30" as="geometry" />
        </mxCell>
        <mxCell id="Dw3qF6tHwgRVVZFkppPR-325" value="&lt;font style=&quot;font-size: 18px;&quot;&gt;Allocated mem chunk&lt;/font&gt;" style="text;html=1;strokeColor=none;fillColor=none;align=center;verticalAlign=middle;whiteSpace=wrap;rounded=0;" parent="1" vertex="1">
          <mxGeometry x="295.75" y="604" width="209.5" height="26" as="geometry" />
        </mxCell>
        <mxCell id="Dw3qF6tHwgRVVZFkppPR-326" value="&lt;font style=&quot;font-size: 18px;&quot;&gt;Free memory chunk&lt;/font&gt;" style="text;html=1;strokeColor=none;fillColor=none;align=center;verticalAlign=middle;whiteSpace=wrap;rounded=0;" parent="1" vertex="1">
          <mxGeometry x="501" y="600" width="178" height="30" as="geometry" />
        </mxCell>
        <mxCell id="Dw3qF6tHwgRVVZFkppPR-327" value="&lt;font style=&quot;font-size: 18px;&quot;&gt;Size=40 bytes&lt;br&gt;&lt;/font&gt;" style="text;html=1;strokeColor=none;fillColor=none;align=center;verticalAlign=middle;whiteSpace=wrap;rounded=0;" parent="1" vertex="1">
          <mxGeometry x="501" y="630" width="178" height="30" as="geometry" />
        </mxCell>
        <mxCell id="mtRzOFIpQPW2Ku6uo6eA-1" value="&lt;div&gt;&lt;font style=&quot;font-size: 18px;&quot;&gt;h&lt;/font&gt;&lt;/div&gt;&lt;div&gt;&lt;font size=&quot;3&quot;&gt;e&lt;/font&gt;&lt;/div&gt;&lt;div&gt;&lt;font size=&quot;3&quot;&gt;a&lt;/font&gt;&lt;/div&gt;&lt;div&gt;&lt;font size=&quot;3&quot;&gt;d&lt;br&gt;&lt;/font&gt;&lt;/div&gt;" style="rounded=0;whiteSpace=wrap;html=1;strokeWidth=2;fillColor=#d5e8d4;strokeColor=default;" parent="1" vertex="1">
          <mxGeometry x="42" y="592" width="38" height="80" as="geometry" />
        </mxCell>
        <mxCell id="mtRzOFIpQPW2Ku6uo6eA-3" value="" style="endArrow=classic;html=1;rounded=0;strokeWidth=2;entryX=0.47;entryY=1.053;entryDx=0;entryDy=0;entryPerimeter=0;exitX=0.5;exitY=1;exitDx=0;exitDy=0;" parent="1" source="mtRzOFIpQPW2Ku6uo6eA-1" target="Dw3qF6tHwgRVVZFkppPR-327" edge="1">
          <mxGeometry width="50" height="50" relative="1" as="geometry">
            <mxPoint x="80" y="660" as="sourcePoint" />
            <mxPoint x="584" y="670" as="targetPoint" />
            <Array as="points">
              <mxPoint x="60" y="690" />
              <mxPoint x="100" y="690" />
              <mxPoint x="584" y="690" />
            </Array>
          </mxGeometry>
        </mxCell>
        <mxCell id="mtRzOFIpQPW2Ku6uo6eA-4" value="" style="endArrow=classic;html=1;rounded=0;strokeWidth=2;exitX=0.64;exitY=1.067;exitDx=0;exitDy=0;exitPerimeter=0;" parent="1" source="Dw3qF6tHwgRVVZFkppPR-327" edge="1">
          <mxGeometry width="50" height="50" relative="1" as="geometry">
            <mxPoint x="670" y="660" as="sourcePoint" />
            <mxPoint x="750" y="630" as="targetPoint" />
            <Array as="points">
              <mxPoint x="615" y="690" />
              <mxPoint x="720" y="690" />
              <mxPoint x="720" y="630" />
            </Array>
          </mxGeometry>
        </mxCell>
        <mxCell id="mtRzOFIpQPW2Ku6uo6eA-5" value="" style="endArrow=none;dashed=1;html=1;dashPattern=1 3;strokeWidth=2;rounded=0;" parent="1" edge="1">
          <mxGeometry width="50" height="50" relative="1" as="geometry">
            <mxPoint x="760" y="632" as="sourcePoint" />
            <mxPoint x="800" y="632" as="targetPoint" />
          </mxGeometry>
        </mxCell>
        <mxCell id="_EUY3Q2DVYwz70PSjT76-1" value="" style="endArrow=classic;html=1;rounded=0;strokeWidth=2;entryX=0.5;entryY=1;entryDx=0;entryDy=0;" parent="1" target="mtRzOFIpQPW2Ku6uo6eA-1" edge="1">
          <mxGeometry width="50" height="50" relative="1" as="geometry">
            <mxPoint x="60" y="690" as="sourcePoint" />
            <mxPoint x="70" y="672" as="targetPoint" />
          </mxGeometry>
        </mxCell>
        <mxCell id="_EUY3Q2DVYwz70PSjT76-2" value="" style="endArrow=classic;html=1;rounded=0;strokeWidth=2;entryX=0.638;entryY=1.093;entryDx=0;entryDy=0;entryPerimeter=0;" parent="1" target="Dw3qF6tHwgRVVZFkppPR-327" edge="1">
          <mxGeometry width="50" height="50" relative="1" as="geometry">
            <mxPoint x="615" y="690" as="sourcePoint" />
            <mxPoint x="665" y="640" as="targetPoint" />
          </mxGeometry>
        </mxCell>
      </root>
    </mxGraphModel>
  </diagram>
</mxfile>
